<?xml version="1.0" encoding="UTF-8" standalone="no"?>
<svg
   xmlns:dc="http://purl.org/dc/elements/1.1/"
   xmlns:cc="http://creativecommons.org/ns#"
   xmlns:rdf="http://www.w3.org/1999/02/22-rdf-syntax-ns#"
   xmlns:svg="http://www.w3.org/2000/svg"
   xmlns="http://www.w3.org/2000/svg"
   xmlns:xlink="http://www.w3.org/1999/xlink"
   xmlns:sodipodi="http://sodipodi.sourceforge.net/DTD/sodipodi-0.dtd"
   xmlns:inkscape="http://www.inkscape.org/namespaces/inkscape"
   inkscape:version="1.0 (4035a4fb49, 2020-05-01)"
   sodipodi:docname="matplotlib_ex.svg"
   id="svg227"
   width="432pt"
   viewBox="0 0 432 304.40839"
   version="1.1"
   height="304.40839pt">
  <sodipodi:namedview
     inkscape:current-layer="svg227"
     inkscape:window-maximized="1"
     inkscape:window-y="-8"
     inkscape:window-x="-8"
     inkscape:cy="263.2997"
     inkscape:cx="322.64091"
     inkscape:zoom="0.75668259"
     fit-margin-bottom="0"
     fit-margin-right="0"
     fit-margin-left="0"
     fit-margin-top="0"
     showgrid="false"
     id="namedview229"
     inkscape:window-height="837"
     inkscape:window-width="1600"
     inkscape:pageshadow="2"
     inkscape:pageopacity="0"
     guidetolerance="10"
     gridtolerance="10"
     objecttolerance="10"
     borderopacity="1"
     bordercolor="#666666"
     pagecolor="#ffffff" />
  <metadata
     id="metadata2">
    <rdf:RDF>
      <cc:Work>
        <dc:type
           rdf:resource="http://purl.org/dc/dcmitype/StillImage" />
        <dc:date>2021-04-16T00:41:59.005564</dc:date>
        <dc:format>image/svg+xml</dc:format>
        <dc:creator>
          <cc:Agent>
            <dc:title>Matplotlib v3.3.2, https://matplotlib.org/</dc:title>
          </cc:Agent>
        </dc:creator>
        <dc:title></dc:title>
      </cc:Work>
    </rdf:RDF>
  </metadata>
  <defs
     id="defs6">
    <style
       id="style4"
       type="text/css">*{stroke-linecap:butt;stroke-linejoin:round;}</style>
  </defs>
  <g
     id="figure_1">
    <g
       id="patch_1">
      <path
         id="path8"
         style="fill:#f0f0f0"
         d="M 0,288 H 432 V 0 H 0 Z" />
    </g>
    <g
       id="axes_1">
      <g
         id="patch_2">
        <path
           id="path11"
           style="fill:#f0f0f0"
           d="M 34.56,267.84 H 410.4 V 34.56 H 34.56 Z" />
      </g>
      <g
         id="matplotlib.axis_1">
        <g
           id="xtick_1">
          <g
             id="line2d_1">
            <path
               id="path14"
               style="fill:none;stroke:#cbcbcb;stroke-opacity:0.4"
               d="M 48.435442,267.84 V 34.56"
               clip-path="url(#p2e4247e6fb)" />
          </g>
          <g
             id="line2d_2" />
          <g
             id="text_1">
            <!-- 50 -->
            <g
               id="g26"
               transform="matrix(0.14,0,0,-0.14,39.527942,281.97781)">
              <defs
                 id="defs20">
                <path
                   id="DejaVuSans-53"
                   d="m 10.796875,72.90625 h 38.71875 v -8.3125 h -29.6875 V 46.734375 q 2.140625,0.734375 4.28125,1.09375 2.15625,0.359375 4.3125,0.359375 Q 40.625,48.1875 47.75,41.5 54.890625,34.8125 54.890625,23.390625 54.890625,11.625 47.5625,5.09375 40.234375,-1.421875 26.90625,-1.421875 q -4.59375,0 -9.359375,0.78125 -4.75,0.78125 -9.828125,2.34375 V 11.625 q 4.390625,-2.390625 9.078125,-3.5625 4.6875,-1.171875 9.90625,-1.171875 8.453125,0 13.375,4.4375 4.9375,4.4375 4.9375,12.0625 0,7.609375 -4.9375,12.046875 -4.921875,4.453125 -13.375,4.453125 -3.953125,0 -7.890625,-0.875 -3.921875,-0.875 -8.015625,-2.734375 z" />
                <path
                   id="DejaVuSans-48"
                   d="m 31.78125,66.40625 q -7.609375,0 -11.453125,-7.5 Q 16.5,51.421875 16.5,36.375 q 0,-14.984375 3.828125,-22.484375 3.84375,-7.5 11.453125,-7.5 7.671875,0 11.5,7.5 3.84375,7.5 3.84375,22.484375 0,15.046875 -3.84375,22.53125 -3.828125,7.5 -11.5,7.5 z m 0,7.8125 q 12.265625,0 18.734375,-9.703125 6.46875,-9.6875 6.46875,-28.140625 0,-18.40625 -6.46875,-28.109375 -6.46875,-9.6875 -18.734375,-9.6875 -12.25,0 -18.71875,9.6875 Q 6.59375,17.96875 6.59375,36.375 q 0,18.453125 6.46875,28.140625 6.46875,9.703125 18.71875,9.703125 z" />
              </defs>
              <use
                 height="100%"
                 width="100%"
                 y="0"
                 x="0"
                 id="use22"
                 xlink:href="#DejaVuSans-53" />
              <use
                 height="100%"
                 width="100%"
                 y="0"
                 id="use24"
                 xlink:href="#DejaVuSans-48"
                 x="63.623047" />
            </g>
          </g>
        </g>
        <g
           id="xtick_2">
          <g
             id="line2d_3">
            <path
               id="path30"
               style="fill:none;stroke:#cbcbcb;stroke-opacity:0.4"
               d="M 128.64031,267.84 V 34.56"
               clip-path="url(#p2e4247e6fb)" />
          </g>
          <g
             id="line2d_4" />
          <g
             id="text_2">
            <!-- 55 -->
            <g
               id="g38"
               transform="matrix(0.14,0,0,-0.14,119.73281,281.97781)">
              <use
                 height="100%"
                 width="100%"
                 y="0"
                 x="0"
                 id="use34"
                 xlink:href="#DejaVuSans-53" />
              <use
                 height="100%"
                 width="100%"
                 y="0"
                 id="use36"
                 xlink:href="#DejaVuSans-53"
                 x="63.623047" />
            </g>
          </g>
        </g>
        <g
           id="xtick_3">
          <g
             id="line2d_5">
            <path
               id="path42"
               style="fill:none;stroke:#cbcbcb;stroke-opacity:0.4"
               d="M 208.84517,267.84 V 34.56"
               clip-path="url(#p2e4247e6fb)" />
          </g>
          <g
             id="line2d_6" />
          <g
             id="text_3">
            <!-- 60 -->
            <g
               id="g53"
               transform="matrix(0.14,0,0,-0.14,199.93767,281.97781)">
              <defs
                 id="defs47">
                <path
                   id="DejaVuSans-54"
                   d="m 33.015625,40.375 q -6.640625,0 -10.53125,-4.546875 -3.875,-4.53125 -3.875,-12.4375 0,-7.859375 3.875,-12.4375 3.890625,-4.5625 10.53125,-4.5625 6.640625,0 10.515625,4.5625 3.875,4.578125 3.875,12.4375 0,7.90625 -3.875,12.4375 Q 39.65625,40.375 33.015625,40.375 Z M 52.59375,71.296875 V 62.3125 q -3.71875,1.75 -7.5,2.671875 -3.78125,0.9375 -7.5,0.9375 -9.765625,0 -14.921875,-6.59375 -5.140625,-6.59375 -5.875,-19.921875 2.875,4.25 7.21875,6.515625 4.359375,2.265625 9.578125,2.265625 10.984375,0 17.359375,-6.671875 6.375,-6.65625 6.375,-18.125 0,-11.234375 -6.640625,-18.03125 -6.640625,-6.78125 -17.671875,-6.78125 -12.65625,0 -19.34375,9.6875 -6.6875,9.703125 -6.6875,28.109375 0,17.28125 8.203125,27.5625 8.203125,10.28125 22.015625,10.28125 3.71875,0 7.5,-0.734375 3.78125,-0.734375 7.890625,-2.1875 z" />
              </defs>
              <use
                 height="100%"
                 width="100%"
                 y="0"
                 x="0"
                 id="use49"
                 xlink:href="#DejaVuSans-54" />
              <use
                 height="100%"
                 width="100%"
                 y="0"
                 id="use51"
                 xlink:href="#DejaVuSans-48"
                 x="63.623047" />
            </g>
          </g>
        </g>
        <g
           id="xtick_4">
          <g
             id="line2d_7">
            <path
               id="path57"
               style="fill:none;stroke:#cbcbcb;stroke-opacity:0.4"
               d="M 289.05004,267.84 V 34.56"
               clip-path="url(#p2e4247e6fb)" />
          </g>
          <g
             id="line2d_8" />
          <g
             id="text_4">
            <!-- 65 -->
            <g
               id="g65"
               transform="matrix(0.14,0,0,-0.14,280.14254,281.97781)">
              <use
                 height="100%"
                 width="100%"
                 y="0"
                 x="0"
                 id="use61"
                 xlink:href="#DejaVuSans-54" />
              <use
                 height="100%"
                 width="100%"
                 y="0"
                 id="use63"
                 xlink:href="#DejaVuSans-53"
                 x="63.623047" />
            </g>
          </g>
        </g>
        <g
           id="xtick_5">
          <g
             id="line2d_9">
            <path
               id="path69"
               style="fill:none;stroke:#cbcbcb;stroke-opacity:0.4"
               d="M 369.2549,267.84 V 34.56"
               clip-path="url(#p2e4247e6fb)" />
          </g>
          <g
             id="line2d_10" />
          <g
             id="text_5">
            <!-- 70 -->
            <g
               id="g80"
               transform="matrix(0.14,0,0,-0.14,360.3474,281.97781)">
              <defs
                 id="defs74">
                <path
                   id="DejaVuSans-55"
                   d="m 8.203125,72.90625 h 46.875 V 68.703125 L 28.609375,0 H 18.3125 L 43.21875,64.59375 H 8.203125 Z" />
              </defs>
              <use
                 height="100%"
                 width="100%"
                 y="0"
                 x="0"
                 id="use76"
                 xlink:href="#DejaVuSans-55" />
              <use
                 height="100%"
                 width="100%"
                 y="0"
                 id="use78"
                 xlink:href="#DejaVuSans-48"
                 x="63.623047" />
            </g>
          </g>
        </g>
        <g
           id="text_6">
          <!-- % $SiO_{2}$ -->
          <g
             id="g104"
             transform="matrix(0.168,0,0,-0.168,193.5,301.65475)">
            <defs
               id="defs90">
              <path
                 id="DejaVuSans-37"
                 d="m 72.703125,32.078125 q -4.25,0 -6.671875,-3.609375 -2.40625,-3.609375 -2.40625,-10.0625 0,-6.34375 2.40625,-9.984375 2.421875,-3.640625 6.671875,-3.640625 4.15625,0 6.5625,3.640625 2.421875,3.640625 2.421875,9.984375 0,6.40625 -2.421875,10.03125 -2.40625,3.640625 -6.5625,3.640625 z m 0,6.203125 q 7.71875,0 12.25,-5.375 Q 89.5,27.546875 89.5,18.40625 q 0,-9.125 -4.5625,-14.484375 -4.5625,-5.34375 -12.234375,-5.34375 -7.8125,0 -12.359375,5.34375 -4.53125,5.359375 -4.53125,14.484375 0,9.1875 4.5625,14.53125 4.5625,5.34375 12.328125,5.34375 z M 22.3125,68.015625 q -4.203125,0 -6.625,-3.640625 -2.40625,-3.625 -2.40625,-9.984375 0,-6.4375 2.390625,-10.0625 2.390625,-3.609375 6.640625,-3.609375 4.25,0 6.65625,3.609375 2.421875,3.625 2.421875,10.0625 0,6.296875 -2.4375,9.953125 -2.4375,3.671875 -6.640625,3.671875 z m 44.09375,6.203125 h 7.8125 L 28.609375,-1.421875 h -7.8125 z m -44.09375,0 q 7.71875,0 12.296875,-5.34375 4.59375,-5.34375 4.59375,-14.484375 0,-9.21875 -4.5625,-14.546875 -4.5625,-5.328125 -12.328125,-5.328125 -7.765625,0 -12.28125,5.34375 -4.515625,5.359375 -4.515625,14.53125 0,9.09375 4.53125,14.453125 4.546875,5.375 12.265625,5.375 z" />
              <path
                 d=""
                 id="DejaVuSans-32" />
              <path
                 id="DejaVuSans-Oblique-83"
                 d="m 60.296875,70.515625 -1.890625,-9.625 q -4.9375,2.640625 -9.796875,3.984375 -4.859375,1.34375 -9.40625,1.34375 -8.828125,0 -14.0625,-3.859375 Q 19.921875,58.5 19.921875,52.09375 q 0,-3.515625 1.921875,-5.390625 1.9375,-1.875 9.9375,-4.03125 l 5.921875,-1.453125 q 10,-2.59375 13.90625,-6.578125 3.90625,-3.96875 3.90625,-11.15625 0,-11.03125 -8.671875,-17.96875 -8.65625,-6.9375 -22.8125,-6.9375 -5.8125,0 -11.671875,1.15625 Q 6.5,0.875 0.59375,3.21875 l 2,10.15625 Q 8.015625,10.015625 13.453125,8.296875 18.890625,6.59375 24.3125,6.59375 q 9.234375,0 14.796875,4.09375 5.5625,4.109375 5.5625,10.703125 0,4.390625 -2.21875,6.65625 -2.21875,2.28125 -9.546875,4.125 L 27,33.6875 q -10.109375,2.640625 -13.796875,6.078125 -3.6875,3.453125 -3.6875,9.65625 0,10.875 8.375,17.828125 8.375,6.96875 21.8125,6.96875 5.21875,0 10.34375,-0.9375 5.125,-0.921875 10.25,-2.765625 z" />
              <path
                 id="DejaVuSans-Oblique-105"
                 d="m 18.3125,75.984375 h 8.984375 L 25.09375,64.59375 H 16.109375 Z M 14.203125,54.6875 H 23.1875 L 12.5,0 H 3.515625 Z" />
              <path
                 id="DejaVuSans-Oblique-79"
                 d="m 45.609375,66.21875 q -8.109375,0 -14.3125,-3.9375 -6.203125,-3.9375 -10.78125,-11.984375 -2.9375,-5.125 -4.484375,-10.890625 Q 14.5,33.640625 14.5,27.78125 q 0,-10.15625 4.859375,-15.671875 4.859375,-5.515625 13.75,-5.515625 8,0 14.265625,3.96875 6.28125,3.984375 10.734375,11.84375 2.96875,5.28125 4.53125,11.0625 1.5625,5.796875 1.5625,11.546875 0,10.109375 -4.890625,15.65625 -4.875,5.546875 -13.703125,5.546875 z M 32.8125,-1.421875 q -13.421875,0 -21.125,7.953125 Q 4,14.5 4,28.328125 q 0,7.90625 3,16.15625 3.015625,8.25 8.28125,14.703125 6.203125,7.5625 13.8125,11.296875 7.625,3.734375 16.8125,3.734375 13.375,0 21.078125,-7.890625 7.71875,-7.875 7.71875,-21.5 0,-8.40625 -2.9375,-16.515625 Q 68.84375,20.21875 63.375,13.625 57.125,6 49.578125,2.28125 42.046875,-1.421875 32.8125,-1.421875 Z" />
              <path
                 id="DejaVuSans-50"
                 d="M 19.1875,8.296875 H 53.609375 V 0 H 7.328125 v 8.296875 q 5.609375,5.8125 15.296875,15.59375 9.703125,9.796875 12.1875,12.640625 4.734375,5.3125 6.609375,9 1.890625,3.6875 1.890625,7.25 0,5.8125 -4.078125,9.46875 -4.078125,3.671875 -10.625,3.671875 -4.640625,0 -9.796875,-1.609375 -5.140625,-1.609375 -11,-4.890625 v 9.96875 Q 13.765625,71.78125 18.9375,73 q 5.1875,1.21875 9.484375,1.21875 11.328125,0 18.0625,-5.671875 6.734375,-5.65625 6.734375,-15.125 0,-4.5 -1.6875,-8.53125 Q 49.859375,40.875 45.40625,35.40625 44.1875,33.984375 37.640625,27.21875 31.109375,20.453125 19.1875,8.296875 Z" />
            </defs>
            <use
               height="100%"
               width="100%"
               y="0"
               x="0"
               id="use92"
               xlink:href="#DejaVuSans-37"
               transform="translate(0,0.015625)" />
            <use
               height="100%"
               width="100%"
               y="0"
               x="0"
               id="use94"
               xlink:href="#DejaVuSans-32"
               transform="translate(95.019531,0.015625)" />
            <use
               height="100%"
               width="100%"
               y="0"
               x="0"
               id="use96"
               xlink:href="#DejaVuSans-Oblique-83"
               transform="translate(126.80664,0.015625)" />
            <use
               height="100%"
               width="100%"
               y="0"
               x="0"
               id="use98"
               xlink:href="#DejaVuSans-Oblique-105"
               transform="translate(190.2832,0.015625)" />
            <use
               height="100%"
               width="100%"
               y="0"
               x="0"
               id="use100"
               xlink:href="#DejaVuSans-Oblique-79"
               transform="translate(218.06641,0.015625)" />
            <use
               height="100%"
               width="100%"
               y="0"
               x="0"
               id="use102"
               xlink:href="#DejaVuSans-50"
               transform="matrix(0.7,0,0,0.7,296.77734,-16.390625)" />
          </g>
        </g>
      </g>
      <g
         id="matplotlib.axis_2">
        <g
           id="ytick_1">
          <g
             id="line2d_11">
            <path
               id="path108"
               style="fill:none;stroke:#cbcbcb;stroke-opacity:0.4"
               d="M 34.56,241.86877 H 410.4"
               clip-path="url(#p2e4247e6fb)" />
          </g>
          <g
             id="line2d_12" />
          <g
             id="text_7">
            <!-- 1 -->
            <g
               id="g117"
               transform="matrix(0.14,0,0,-0.14,22.1525,247.18768)">
              <defs
                 id="defs113">
                <path
                   id="DejaVuSans-49"
                   d="m 12.40625,8.296875 h 16.109375 v 55.625 L 10.984375,60.40625 v 8.984375 l 17.4375,3.515625 H 38.28125 V 8.296875 H 54.390625 V 0 H 12.40625 Z" />
              </defs>
              <use
                 height="100%"
                 width="100%"
                 y="0"
                 x="0"
                 id="use115"
                 xlink:href="#DejaVuSans-49" />
            </g>
          </g>
        </g>
        <g
           id="ytick_2">
          <g
             id="line2d_13">
            <path
               id="path121"
               style="fill:none;stroke:#cbcbcb;stroke-opacity:0.4"
               d="M 34.56,211.1336 H 410.4"
               clip-path="url(#p2e4247e6fb)" />
          </g>
          <g
             id="line2d_14" />
          <g
             id="text_8">
            <!-- 2 -->
            <g
               id="g127"
               transform="matrix(0.14,0,0,-0.14,22.1525,216.4525)">
              <use
                 height="100%"
                 width="100%"
                 y="0"
                 x="0"
                 id="use125"
                 xlink:href="#DejaVuSans-50" />
            </g>
          </g>
        </g>
        <g
           id="ytick_3">
          <g
             id="line2d_15">
            <path
               id="path131"
               style="fill:none;stroke:#cbcbcb;stroke-opacity:0.4"
               d="M 34.56,180.39842 H 410.4"
               clip-path="url(#p2e4247e6fb)" />
          </g>
          <g
             id="line2d_16" />
          <g
             id="text_9">
            <!-- 3 -->
            <g
               id="g140"
               transform="matrix(0.14,0,0,-0.14,22.1525,185.71732)">
              <defs
                 id="defs136">
                <path
                   id="DejaVuSans-51"
                   d="M 40.578125,39.3125 Q 47.65625,37.796875 51.625,33 q 3.984375,-4.78125 3.984375,-11.8125 0,-10.78125 -7.421875,-16.703125 -7.421875,-5.90625 -21.09375,-5.90625 -4.578125,0 -9.4375,0.90625 -4.859375,0.90625 -10.03125,2.71875 v 9.515625 q 4.09375,-2.390625 8.96875,-3.609375 4.890625,-1.21875 10.21875,-1.21875 9.265625,0 14.125,3.65625 4.859375,3.65625 4.859375,10.640625 0,6.453125 -4.515625,10.078125 -4.515625,3.640625 -12.5625,3.640625 h -8.5 v 8.109375 h 8.890625 q 7.265625,0 11.125,2.90625 3.859375,2.90625 3.859375,8.375 0,5.609375 -3.984375,8.609375 -3.96875,3.015625 -11.390625,3.015625 -4.0625,0 -8.703125,-0.890625 Q 15.375,64.15625 9.8125,62.3125 v 8.78125 q 5.625,1.5625 10.53125,2.34375 4.90625,0.78125 9.25,0.78125 11.234375,0 17.765625,-5.109375 6.546875,-5.09375 6.546875,-13.78125 0,-6.0625 -3.46875,-10.234375 -3.46875,-4.171875 -9.859375,-5.78125 z" />
              </defs>
              <use
                 height="100%"
                 width="100%"
                 y="0"
                 x="0"
                 id="use138"
                 xlink:href="#DejaVuSans-51" />
            </g>
          </g>
        </g>
        <g
           id="ytick_4">
          <g
             id="line2d_17">
            <path
               id="path144"
               style="fill:none;stroke:#cbcbcb;stroke-opacity:0.4"
               d="M 34.56,149.66324 H 410.4"
               clip-path="url(#p2e4247e6fb)" />
          </g>
          <g
             id="line2d_18" />
          <g
             id="text_10">
            <!-- 4 -->
            <g
               id="g153"
               transform="matrix(0.14,0,0,-0.14,22.1525,154.98215)">
              <defs
                 id="defs149">
                <path
                   id="DejaVuSans-52"
                   d="M 37.796875,64.3125 12.890625,25.390625 h 24.90625 z m -2.59375,8.59375 h 12.40625 V 25.390625 h 10.40625 V 17.1875 H 47.609375 V 0 h -9.8125 V 17.1875 H 4.890625 v 9.515625 z" />
              </defs>
              <use
                 height="100%"
                 width="100%"
                 y="0"
                 x="0"
                 id="use151"
                 xlink:href="#DejaVuSans-52" />
            </g>
          </g>
        </g>
        <g
           id="ytick_5">
          <g
             id="line2d_19">
            <path
               id="path157"
               style="fill:none;stroke:#cbcbcb;stroke-opacity:0.4"
               d="M 34.56,118.92806 H 410.4"
               clip-path="url(#p2e4247e6fb)" />
          </g>
          <g
             id="line2d_20" />
          <g
             id="text_11">
            <!-- 5 -->
            <g
               id="g163"
               transform="matrix(0.14,0,0,-0.14,22.1525,124.24697)">
              <use
                 height="100%"
                 width="100%"
                 y="0"
                 x="0"
                 id="use161"
                 xlink:href="#DejaVuSans-53" />
            </g>
          </g>
        </g>
        <g
           id="ytick_6">
          <g
             id="line2d_21">
            <path
               id="path167"
               style="fill:none;stroke:#cbcbcb;stroke-opacity:0.4"
               d="M 34.56,88.192885 H 410.4"
               clip-path="url(#p2e4247e6fb)" />
          </g>
          <g
             id="line2d_22" />
          <g
             id="text_12">
            <!-- 6 -->
            <g
               id="g173"
               transform="matrix(0.14,0,0,-0.14,22.1525,93.511792)">
              <use
                 height="100%"
                 width="100%"
                 y="0"
                 x="0"
                 id="use171"
                 xlink:href="#DejaVuSans-54" />
            </g>
          </g>
        </g>
        <g
           id="ytick_7">
          <g
             id="line2d_23">
            <path
               id="path177"
               style="fill:none;stroke:#cbcbcb;stroke-opacity:0.4"
               d="M 34.56,57.457708 H 410.4"
               clip-path="url(#p2e4247e6fb)" />
          </g>
          <g
             id="line2d_24" />
          <g
             id="text_13">
            <!-- 7 -->
            <g
               id="g183"
               transform="matrix(0.14,0,0,-0.14,22.1525,62.776614)">
              <use
                 height="100%"
                 width="100%"
                 y="0"
                 x="0"
                 id="use181"
                 xlink:href="#DejaVuSans-55" />
            </g>
          </g>
        </g>
        <g
           id="text_14">
          <!-- % $MgO$ -->
          <g
             id="g201"
             transform="matrix(0,-0.168,-0.168,0,14.6245,181.104)">
            <defs
               id="defs189">
              <path
                 id="DejaVuSans-Oblique-77"
                 d="M 16.890625,72.90625 H 31.6875 l 8.5,-49.125 28.21875,49.125 h 15.1875 L 69.390625,0 H 59.8125 L 72.21875,63.921875 43.609375,14.015625 h -9.625 L 24.703125,64.109375 12.3125,0 h -9.625 z" />
              <path
                 id="DejaVuSans-Oblique-103"
                 d="M 59.625,54.6875 50.296875,6.78125 q -2.6875,-13.90625 -10.28125,-20.734375 -7.59375,-6.84375 -20.4375,-6.84375 -4.734375,0 -8.796875,0.703125 -4.046875,0.703125 -7.5625,2.171875 L 4.890625,-9.1875 q 3.3125,-2.140625 7.015625,-3.15625 3.71875,-1.03125 7.921875,-1.03125 8.546875,0 14.03125,4.671875 5.5,4.65625 7.25,13.390625 l 0.78125,4.109375 Q 38.140625,4.5 33.15625,2.25 28.171875,0 22.40625,0 14.109375,0 9.34375,5.484375 q -4.75,5.5 -4.75,15.125 0,7.5625 2.875,14.8125 2.890625,7.25 8.109375,12.875 Q 19.046875,52 23.65625,54 q 4.609375,2 9.640625,2 5.515625,0 9.609375,-2.5625 4.109375,-2.5625 6.125,-7.25 l 1.5625,8.5 z M 46.09375,34.625 q 0,6.640625 -3.125,10.25 -3.125,3.609375 -8.890625,3.609375 -3.5625,0 -6.78125,-1.421875 -3.21875,-1.40625 -5.515625,-3.953125 -3.71875,-4.1875 -5.796875,-9.875 -2.0625,-5.6875 -2.0625,-11.75 0,-6.734375 3.140625,-10.359375 3.15625,-3.609375 9.0625,-3.609375 8.546875,0 14.25,7.734375 5.71875,7.75 5.71875,19.375 z" />
            </defs>
            <use
               height="100%"
               width="100%"
               y="0"
               x="0"
               id="use191"
               xlink:href="#DejaVuSans-37"
               transform="translate(0,0.78125)" />
            <use
               height="100%"
               width="100%"
               y="0"
               x="0"
               id="use193"
               xlink:href="#DejaVuSans-32"
               transform="translate(95.019531,0.78125)" />
            <use
               height="100%"
               width="100%"
               y="0"
               x="0"
               id="use195"
               xlink:href="#DejaVuSans-Oblique-77"
               transform="translate(126.80664,0.78125)" />
            <use
               height="100%"
               width="100%"
               y="0"
               x="0"
               id="use197"
               xlink:href="#DejaVuSans-Oblique-103"
               transform="translate(213.08594,0.78125)" />
            <use
               height="100%"
               width="100%"
               y="0"
               x="0"
               id="use199"
               xlink:href="#DejaVuSans-Oblique-79"
               transform="translate(276.5625,0.78125)" />
          </g>
        </g>
      </g>
      <g
         id="line2d_25">
        <path
           id="path205"
           style="fill:none;stroke:#ffa500;stroke-width:2"
           d="m 51.643636,45.163636 65.767994,113.720154 93.03764,27.66166 76.99667,33.8087 20.85327,24.58814 85.01715,12.29407"
           clip-path="url(#p2e4247e6fb)" />
      </g>
      <g
         id="patch_3">
        <path
           id="path208"
           style="fill:none;stroke:#f0f0f0;stroke-width:3;stroke-linecap:square;stroke-linejoin:miter"
           d="M 34.56,267.84 V 34.56" />
      </g>
      <g
         id="patch_4">
        <path
           id="path211"
           style="fill:none;stroke:#f0f0f0;stroke-width:3;stroke-linecap:square;stroke-linejoin:miter"
           d="M 410.4,267.84 V 34.56" />
      </g>
      <g
         id="patch_5">
        <path
           id="path214"
           style="fill:none;stroke:#f0f0f0;stroke-width:3;stroke-linecap:square;stroke-linejoin:miter"
           d="M 34.56,267.84 H 410.4" />
      </g>
      <g
         id="patch_6">
        <path
           id="path217"
           style="fill:none;stroke:#f0f0f0;stroke-width:3;stroke-linecap:square;stroke-linejoin:miter"
           d="M 34.56,34.56 H 410.4" />
      </g>
    </g>
  </g>
  <defs
     id="defs225">
    <clipPath
       id="p2e4247e6fb">
      <rect
         id="rect222"
         y="34.560001"
         x="34.560001"
         width="375.84"
         height="233.28" />
    </clipPath>
  </defs>
</svg>
